<svg xmlns="http://www.w3.org/2000/svg" width="20" height="17" viewBox="-1 -1 20 17" id="ic-calendar" y="226">
    <defs>
        <style>.amcls-1{fill:#379ec4;fill-rule:evenodd}</style>
    </defs>
    <g id="ic-calendar">
        <path class="amcls-1" d="M17.94 15H0V0h17.94v15zM1.02 14h15.9V1H1.02v13zm4.33-3.022a.74.74 0 1 1-.74-.722.73.73 0 0 1 .74.723zm.06-3.186a.74.74 0 1 1-.74-.721.73.73 0 0 1 .74.722zm8.86-.025a.745.745 0 1 1-.75-.721.739.739 0 0 1 .75.722zm-.78 2.489a.722.722 0 1 0 .74.721.73.73 0 0 0-.74-.721m-3.67-2.5a.74.74 0 1 1-.74-.721.73.73 0 0 1 .74.72zm-.77 2.489a.722.722 0 1 0 .74.722.73.73 0 0 0-.74-.722m8.55-5.467H.17v-1H17.6v1z"/>
    </g>
</svg>